<?xml version="1.0" encoding="UTF-8" standalone="no"?>
<!-- Created with Inkscape (http://www.inkscape.org/) -->

<svg
   version="1.1"
   id="svg2"
   width="5333.3335"
   height="5333.3335"
   viewBox="0 0 5333.3335 5333.3335"
   sodipodi:docname="50_ice_skul.eps"
   xmlns:inkscape="http://www.inkscape.org/namespaces/inkscape"
   xmlns:sodipodi="http://sodipodi.sourceforge.net/DTD/sodipodi-0.dtd"
   xmlns="http://www.w3.org/2000/svg"
   xmlns:svg="http://www.w3.org/2000/svg">
  <defs
     id="defs6" />
  <sodipodi:namedview
     id="namedview4"
     pagecolor="#ffffff"
     bordercolor="#000000"
     borderopacity="0.25"
     inkscape:showpageshadow="2"
     inkscape:pageopacity="0.0"
     inkscape:pagecheckerboard="0"
     inkscape:deskcolor="#d1d1d1" />
  <g
     id="g8"
     inkscape:groupmode="layer"
     inkscape:label="ink_ext_XXXXXX"
     transform="matrix(1.3333333,0,0,-1.3333333,0,5333.3333)">
    <g
       id="g10"
       transform="scale(0.1)">
      <path
         d="M 0,40000 H 40000 V 0 H 0 v 40000"
         style="fill:#ffffff;fill-opacity:1;fill-rule:evenodd;stroke:none"
         id="path12" />
      <path
         d="m 14505.4,23705.6 c -137.1,107.6 -282.5,266.9 -435.7,491.3 -33.9,49.8 -94.5,70.1 -151.6,51 -310.5,-103.7 -900.3,-227.3 -1232.1,176 l -2.1,2.6 c -218.6,267 -334.2,587.5 -306.9,915.8 23.5,282.8 152.5,568 412.2,825.1 36.9,36.5 49,87.5 32.4,136.7 -1.3,3.6 -2.4,7.2 -3.6,10.7 -20.6,61.6 -28.3,126.8 -24.7,195 2,38.4 -10.8,72.2 -37.6,99.7 -425.1,434.8 -610,893.9 -627.4,1338.2 -19.5,496.3 171.4,968.7 469.9,1365.2 24,31.8 32.2,68.6 23.8,107.5 -111.8,523.2 -84.8,985.3 63.1,1438.5 157.5,482.8 450.8,949.8 858.8,1467.5 254.7,323.2 560.4,552.6 872.3,702.5 319.9,153.6 647.1,223.3 933,224.5 297.8,1.2 555.9,-72.5 723.1,-204.2 70.5,-55.6 125.9,-122.1 163,-198.3 19.1,-39.3 52.8,-64.8 95.8,-72.5 245,-44.1 697.3,-183 985.6,-619.8 100.5,-152.2 160.2,-317.1 181.4,-490.8 6.5,-53.9 42.5,-96.2 94.7,-111.3 297.7,-86.4 841.6,-335 1099.3,-1027.7 117.6,-316.1 153.4,-641.7 104,-971 -8.3,-54.8 16.4,-106.3 64.2,-134.2 122.8,-71.8 279.1,-188.3 416.3,-368.9 184.3,-242.5 335.6,-600.2 325.3,-1118 -0.7,-37.5 12.3,-70.1 38.9,-96.6 363.2,-362.7 1663.6,-1807.7 -324.1,-2130.3 -69.3,-11.2 -117.9,-74.2 -110.9,-144 32.7,-330.3 19.3,-654.7 -31.3,-1021.9 -63.4,-459.2 -183.6,-979.1 -343.9,-1661 -166,-706.4 -384.3,-1227.6 -703,-1496.5 -341.3,-288.1 -774.4,-293.3 -1345.8,60 -923.2,571 -2004.4,1917.4 -2253.8,2236.6 -7,8.8 -13.8,15.7 -22.6,22.6"
         style="fill:#000000;fill-opacity:1;fill-rule:evenodd;stroke:none"
         id="path14" />
      <path
         d="m 12936.7,30777.2 c -95,-290.8 -134.5,-586.5 -112.9,-904.2 3.5,-51 33.3,-92.9 80.4,-113 47.1,-20 98,-12.4 137.2,20.4 279.2,234.1 573.2,389.3 877.2,549.8 222.3,117.4 450.2,237.7 680.1,395.5 559.4,383.7 842.9,716.7 843.7,717.6 l 0.4,0.7 c 2.2,2.4 759.5,864.4 554.8,1290.6 -18.8,39 -49.3,74.7 -89.5,106.4 -121,95.4 -320,148.7 -557.8,147.7 -249.6,-1 -536.9,-62.7 -819.7,-198.5 -277.5,-133.3 -550.3,-338.4 -778.5,-628 -390.3,-495.3 -669.3,-937.3 -815.4,-1385"
         style="fill:#ffffff;fill-opacity:1;fill-rule:nonzero;stroke:none"
         id="path16" />
      <path
         d="m 12936.7,30777.2 c -95,-290.8 -134.5,-586.5 -112.9,-904.2 3.5,-51 33.3,-92.9 80.4,-113 47.1,-20 98,-12.4 137.2,20.4 279.2,234.1 573.2,389.3 877.2,549.8 222.3,117.4 450.2,237.7 680.1,395.5 559.4,383.7 842.9,716.7 843.7,717.6 l 0.4,0.7 c 2.2,2.4 759.5,864.4 554.8,1290.6 -18.8,39 -49.3,74.7 -89.5,106.4 -121,95.4 -320,148.7 -557.8,147.7 -147.6,-0.6 -308.4,-22.4 -473.6,-68.2 2.3,0.3 777.1,103.8 895.5,-413.6 118.8,-518.1 -642.6,-1406.1 -1534.8,-1330 0,0 106.7,-273.2 -561.7,-707.2 -668.2,-433.9 -812.8,150.6 -635,577.4 -39.9,-90.1 -74.7,-179.9 -104,-269.9"
         style="fill:#e6e6e6;fill-opacity:1;fill-rule:nonzero;stroke:none"
         id="path18" />
      <path
         d="m 12979.1,27017.3 c 451.1,736 1629.4,1639.3 2534.5,2333.1 417.1,319.7 774,593.3 964.7,776.2 361.1,346.4 602.8,703.8 706.6,1039.1 96.5,311.4 72.2,603.8 -89,847.8 -185.7,281.4 -456.7,410.6 -660.9,469.9 -36.6,10.7 -72.1,6.1 -104.8,-13.4 -32.8,-19.5 -53.7,-48.6 -61.8,-85.8 -116,-533.5 -624.6,-1112.2 -626.6,-1114.4 -12.9,-14.9 -319.2,-368.7 -893.3,-762.6 -240.1,-164.7 -476.5,-289.6 -707,-411.2 -394.6,-208.4 -771.1,-407.2 -1107.1,-789.2 -334.7,-380.8 -561.2,-854.3 -541.8,-1348.4 12.3,-312.3 123.3,-635.6 368.4,-952.8 27.5,-35.7 67.2,-53.8 112.1,-51.4 44.9,2.4 82.5,24.8 106,63.1"
         style="fill:#ffffff;fill-opacity:1;fill-rule:nonzero;stroke:none"
         id="path20" />
      <path
         d="m 12979.1,27017.3 c 451.1,736 1629.4,1639.3 2534.5,2333.1 417.1,319.7 774,593.3 964.7,776.2 361.1,346.4 602.8,703.8 706.6,1039.1 96.5,311.4 72.2,603.8 -89,847.8 -185.7,281.4 -456.7,410.6 -660.9,469.9 -36.6,10.7 -72.1,6.1 -104.8,-13.4 -32.8,-19.5 -53.7,-48.6 -61.8,-85.8 -116,-533.5 -624.6,-1112.2 -626.6,-1114.4 -9.9,-11.4 -192.1,-221.9 -535,-496.9 1.4,0.9 865.5,513.7 1238.2,948.6 372.9,435.2 849.2,-40.7 512.8,-687.5 -336.4,-646.8 -1512.4,-1639.3 -2374.6,-1575.2 0,0 0.8,-603.4 -795.6,-1085.1 -796.5,-481.6 -1239.5,19.5 -753.2,933.1 -334.7,-380.8 -561.2,-854.3 -541.8,-1348.4 12.3,-312.3 123.3,-635.6 368.4,-952.8 27.5,-35.7 67.2,-53.8 112.1,-51.4 44.9,2.4 82.5,24.8 106,63.1 z m 2127.6,3755.6 h 0.1"
         style="fill:#e6e6e6;fill-opacity:1;fill-rule:nonzero;stroke:none"
         id="path22" />
      <path
         d="m 18653.8,29053.1 c -6.4,-15.5 -13,-31.1 -19.8,-46.7 -213.3,-486.6 -615,-972.8 -1216.5,-1439.5 -252.4,-195.8 -470.6,-356.3 -669.7,-502.6 -679.2,-499.5 -1133.4,-833.4 -1378.2,-1394.2 -15.3,-35.2 -15.3,-71.2 0.1,-106.3 15.3,-35.1 41.8,-59.6 78,-72.1 474.1,-164.7 1574.1,-368.2 2268.5,926.2 25.9,48.2 75.6,74.7 130.1,69.3 34.3,-3.4 1272.2,-120.4 1460.2,1109.4 98.2,642.3 -49.6,1047.6 -240.4,1298.7 -67.1,88.3 -139.3,157.6 -207.6,211.4 -33.7,26.5 -74.1,35 -115.6,24.1 -41.6,-10.9 -72.7,-38 -89.1,-77.7"
         style="fill:#ffffff;fill-opacity:1;fill-rule:nonzero;stroke:none"
         id="path24" />
      <path
         d="m 18653.8,29053.1 c -6.4,-15.5 -13,-31.1 -19.8,-46.7 -116.4,-265.6 -288.9,-531 -519.5,-793.3 h 0.1 c 1366.7,1148.9 1182.2,-925.2 696.1,-1263.3 -486.2,-338.2 -1231.8,-108.7 -1231.8,-108.7 -170.6,-1440.7 -1648,-1459.3 -1582.2,-853.2 55.2,508.1 515.1,898.2 662.4,1011.1 -630.3,-464.1 -1055.4,-792.9 -1289.5,-1328.9 -15.3,-35.2 -15.3,-71.2 0.1,-106.3 15.3,-35.1 41.8,-59.6 78,-72.1 474.1,-164.7 1574.1,-368.2 2268.5,926.2 25.9,48.2 75.6,74.7 130.1,69.3 34.3,-3.4 1272.2,-120.4 1460.2,1109.4 98.2,642.3 -49.6,1047.6 -240.4,1298.7 -67.1,88.3 -139.3,157.6 -207.6,211.4 -33.7,26.5 -74.1,35 -115.6,24.1 -41.6,-10.9 -72.7,-38 -89.1,-77.7"
         style="fill:#e6e6e6;fill-opacity:1;fill-rule:nonzero;stroke:none"
         id="path26" />
      <path
         d="m 15061.7,25608 c 252,730.5 750.5,1097.1 1529.2,1669.6 206.3,151.7 432.4,318 664.4,498 565.9,439.1 941.2,890.2 1136.8,1336.7 197.3,450.2 210.8,897.8 52.2,1324.4 -188,505.4 -552.1,729.5 -806.4,827.3 -36.7,14.1 -73.7,12.1 -108.6,-6.1 -35,-18 -58,-47.1 -67.7,-85.2 -7.1,-28.3 -15.1,-56.7 -23.9,-85.1 -117.2,-378.5 -382.7,-774.7 -776.2,-1152.2 -198.6,-190.5 -562.4,-469.4 -987.4,-795.2 -1163.5,-891.8 -2802.7,-2148.3 -2604.9,-2742 50.9,-152.6 114.1,-295.8 189.2,-424.6 147.5,-252.9 341.8,-453.1 580.2,-560.9 235.1,-106.5 518.2,-123.7 848.1,-13.8 100.1,33.3 204,78.1 311.7,135.1 30.9,16.4 51.9,41 63.3,74"
         style="fill:#ffffff;fill-opacity:1;fill-rule:nonzero;stroke:none"
         id="path28" />
      <path
         d="m 15061.7,25608 c 252,730.5 750.5,1097.1 1529.2,1669.6 206.3,151.7 432.4,318 664.4,498 565.9,439.1 941.2,890.2 1136.8,1336.7 197.3,450.2 210.8,897.8 52.2,1324.4 -188,505.4 -552.1,729.5 -806.4,827.3 -36.7,14.1 -73.7,12.1 -108.6,-6.1 -35,-18 -58,-47.1 -67.7,-85.2 -7.1,-28.3 -15.1,-56.7 -23.9,-85.1 -117.2,-378.5 -382.7,-774.7 -776.2,-1152.2 -154.4,-148.2 -408.8,-349.8 -714.2,-585.3 0,0 1106.7,676.8 1609.4,1052.9 502.9,376.2 792.3,-293.7 628.2,-1092.5 -164.3,-798.8 -1663.8,-2075.6 -2769.6,-2103.6 0,0 84.7,-366.3 -493.8,-910.3 -578.6,-543.9 -1856.5,-99.5 -881.1,1525.4 -625.6,-561.6 -1080.9,-1094.6 -971.2,-1423.8 50.9,-152.6 114.1,-295.8 189.2,-424.6 147.5,-252.9 341.8,-453.1 580.2,-560.9 235.1,-106.5 518.2,-123.7 848.1,-13.8 100.1,33.3 204,78.1 311.7,135.1 30.9,16.4 51.9,41 63.3,74"
         style="fill:#e6e6e6;fill-opacity:1;fill-rule:nonzero;stroke:none"
         id="path30" />
      <path
         d="m 12831.5,25812.4 c -116.6,-160.7 -177.5,-327.7 -191.2,-491.8 -21.3,-256.6 72.3,-511 248.7,-726.5 l 2.1,-2.6 c 326.9,-397.4 1094.2,-35.7 1117.2,-24.8 61.7,29.4 134.9,7.5 170.4,-50.9 906.6,-1490.5 1476.9,-19.1 1494.1,26.1 17,44.5 53,74.5 99.9,83.2 46.9,8.6 91.3,-6.6 123,-42.2 1111.9,-1245.5 1609.7,416.3 1622.2,458.4 12.2,41.5 40.7,71.9 81.4,86.9 40.6,15 82,10.3 118.3,-13.3 1317.9,-859.3 1193.5,645.5 1190.5,680.5 -6.3,72.2 46.9,136.3 118.9,143.4 1411.2,140.9 1079.6,903.3 712.5,1386.3 -30.9,40.7 -78.8,59.4 -129.2,50.3 -50.4,-9.1 -88.7,-43.4 -103.4,-92.5 -283.2,-943.3 -1159.7,-1058.2 -1524.4,-1063.9 -47.2,-0.7 -87.3,-23.9 -111.6,-64.3 -874.8,-1456.3 -2239,-1031.3 -2652.8,-858.2 -37.7,15.7 -76.4,14.1 -112.6,-4.8 -115.8,-60.5 -227.6,-108.2 -335.4,-144.1 -398.2,-132.7 -746.4,-108.9 -1040.9,24.4 -279.1,126.4 -505.4,350.4 -677.1,631.6 -23.8,39.1 -62.3,61.6 -107.9,63.5 -45.7,1.8 -85.9,-17.7 -112.7,-54.7"
         style="fill:#ffffff;fill-opacity:1;fill-rule:nonzero;stroke:none"
         id="path32" />
      <path
         d="m 12831.5,25812.4 c -116.6,-160.7 -177.5,-327.7 -191.2,-491.8 -21.3,-256.6 72.3,-511 248.7,-726.5 l 2.1,-2.6 c 196.6,-239 552.5,-203.4 810,-134.7 -7.8,-1.4 -499.8,-88.9 -708.6,367.5 -210.4,460 285.4,311.3 606.7,88.8 321.1,-222.4 1098.9,-221.9 1530.9,68.2 0,0 1232.4,-494.7 2081.7,115.1 849.3,609.9 661.7,834.6 1300.8,952.1 639.2,117.7 710.9,150.3 886.2,472.2 175.3,321.9 785.8,-50.5 198.9,-462.8 728.1,269.7 447.4,865.1 141.8,1267.2 -30.9,40.7 -78.8,59.4 -129.2,50.3 -50.4,-9.1 -88.7,-43.4 -103.4,-92.5 -283.2,-943.3 -1159.7,-1058.2 -1524.4,-1063.9 -47.2,-0.7 -87.3,-23.9 -111.6,-64.3 -874.8,-1456.3 -2239,-1031.3 -2652.8,-858.2 -37.7,15.7 -76.4,14.1 -112.6,-4.8 -115.8,-60.5 -227.6,-108.2 -335.4,-144.1 -398.2,-132.7 -746.4,-108.9 -1040.9,24.4 -279.1,126.4 -505.4,350.4 -677.1,631.6 -23.8,39.1 -62.3,61.6 -107.9,63.5 -45.7,1.8 -85.9,-17.7 -112.7,-54.7"
         style="fill:#e6e6e6;fill-opacity:1;fill-rule:nonzero;stroke:none"
         id="path34" />
      <path
         d="m 17586.7,21737.1 c -17.1,-26.9 -34.5,-53.9 -52.2,-80.7 -29.8,-44.8 -30.1,-99.8 -0.9,-145.1 29.1,-45.2 79.3,-67.6 132.5,-59.1 64.5,10.4 124.7,30.9 181,61 46.5,24.9 72.7,71.4 69.9,124 -2.9,52.6 -33.9,96.2 -82.7,115.9 -27.7,11.3 -55.3,22.8 -82.8,34.7 -60.4,26.2 -129.6,4.9 -164.8,-50.7"
         style="fill:#e6e6e6;fill-opacity:1;fill-rule:nonzero;stroke:none"
         id="path36" />
      <path
         d="m 17401.8,24037.8 c 107.6,-111.2 263.2,-261.4 457.9,-420.7 36.9,-30.3 83.3,-38.3 128.3,-22.4 45.1,16 76,51.5 85.6,98.3 69.2,335.7 98.4,615.4 110.7,792.2 4.2,59.7 -30.2,112.9 -86.2,133.6 -79.1,29.3 -163.9,67.4 -254.9,115.2 -33.6,17.7 -69.2,20.4 -105.2,8 -35.9,-12.5 -62.2,-36.6 -77.7,-71.3 -62.3,-139.6 -151.2,-308.3 -268.1,-459.4 -40.7,-52.6 -36.6,-125.7 9.6,-173.5"
         style="fill:#ffffff;fill-opacity:1;fill-rule:nonzero;stroke:none"
         id="path38" />
      <path
         d="m 18131.4,22895.3 c -77.2,-229.6 -172.6,-467.7 -290.6,-705.7 -16.9,-34.2 -18.7,-70 -5.2,-105.7 13.4,-35.7 38.3,-61.4 73.6,-75.9 63,-25.9 126.3,-49.7 189.8,-71.2 63.2,-21.4 131.5,6.7 161.3,66.4 99.5,199.7 185.6,447.8 262.1,737.5 15.7,59.6 -10.3,120.3 -64.3,150.1 -45.2,24.8 -89.6,50.3 -133.1,76.2 -35.6,21.3 -75.1,24.8 -114,10.4 -38.9,-14.4 -66.4,-42.8 -79.6,-82.1"
         style="fill:#ffffff;fill-opacity:1;fill-rule:nonzero;stroke:none"
         id="path40" />
      <path
         d="m 16384.9,23267.7 c 46.7,162.8 87.6,311.6 120,431.8 18,66.9 -18.1,135.9 -83.3,159.3 -176.4,63.5 -371.5,190.4 -585.7,402.6 -8.5,-16.9 -17.6,-34.6 -27.3,-53 -3.1,-5.8 -5.4,-10.9 -7.6,-17 -19.9,-55 -70.2,-192.3 -137.8,-364.5 -19.1,-48.5 -9.4,-100.3 26,-138.5 118.7,-128.6 281.6,-297.2 477.4,-480.8 34.7,-32.6 80.2,-43.8 126,-31.2 45.9,12.7 79.2,45.6 92.3,91.3"
         style="fill:#ffffff;fill-opacity:1;fill-rule:nonzero;stroke:none"
         id="path42" />
      <path
         d="m 16159.5,22534.8 c 18.6,55.6 36.9,111.9 54.9,168.4 16.4,51.2 1.8,104.1 -38.4,139.7 -200.6,177.6 -375.8,348.7 -517.4,494.3 -31.6,32.4 -73.5,45.9 -118.1,38.1 -44.6,-7.9 -79.5,-34.9 -98,-76.3 -17.3,-38.2 -34.7,-76.3 -52.2,-113.5 -23.2,-49.3 -15.1,-104.5 21.2,-145 161.4,-180.3 340.9,-372 528.8,-558 33.6,-33.2 78.3,-45.7 124.2,-34.8 45.9,11 80.1,42.4 95,87.1"
         style="fill:#ffffff;fill-opacity:1;fill-rule:nonzero;stroke:none"
         id="path44" />
      <path
         d="m 16401.1,22422 c -22.2,-66.2 -44.7,-131.3 -67.3,-194.6 -18.9,-52.7 -4,-108.8 38.5,-145.3 184.3,-158.3 370,-300 548.8,-410.6 38.2,-23.6 75.6,-45.3 112.1,-65.2 58.8,-31.9 131,-15.6 170.4,38.4 45.9,62.8 89.7,126.3 131.3,190.3 20.6,31.6 26.7,66.5 17.9,103.2 -8.7,36.6 -29.8,65 -62.5,84 -240,139.2 -469.6,298.4 -682.4,462.6 -35,27 -77.2,34.8 -119.5,21.9 -42.4,-12.8 -73.2,-42.7 -87.3,-84.7"
         style="fill:#ffffff;fill-opacity:1;fill-rule:nonzero;stroke:none"
         id="path46" />
      <path
         d="m 16789.7,23739.3 c -47.9,-181 -126.4,-469.8 -219.8,-782.3 -15.6,-52.5 0.9,-106.2 43.3,-140.8 245.5,-200.1 518.4,-397.7 806,-564.3 32.9,-19.1 68.3,-23.2 104.7,-12.3 36.4,11 63.7,34 80.6,68.1 136.9,275.6 242,551.7 322.6,813.1 16.9,54.5 -1.5,111 -47.1,145.2 -302.9,227.1 -538,452.9 -684,604.8 -41.8,43.5 -105.2,53.5 -158.3,25 -49.1,-26.2 -100.8,-47.6 -155.1,-62.5 -46.7,-12.9 -80.5,-47.1 -92.9,-94"
         style="fill:#ffffff;fill-opacity:1;fill-rule:nonzero;stroke:none"
         id="path48" />
      <path
         d="m 18430.4,24270 c -23.6,-222.8 -67.7,-520.5 -149.7,-857.5 -13.7,-56.1 8.8,-112.1 57.5,-143.2 38.1,-24.3 77,-48.3 116.6,-71.9 37.5,-22.4 79.6,-25.3 119.9,-8.1 40.2,17.1 67.3,49.4 77.2,92.1 76.6,329.8 141.1,618.9 190.9,880 11.7,61.2 -19.3,120.6 -76.2,146 -52.8,23.5 -101.6,46.3 -146.4,68 -40.1,19.5 -83.3,18.3 -122.3,-3.4 -38.9,-21.6 -62.8,-57.6 -67.5,-102"
         style="fill:#ffffff;fill-opacity:1;fill-rule:nonzero;stroke:none"
         id="path50" />
      <path
         d="m 16065.3,22942.5 c 48.8,-344.9 -299.3,-171.6 -481.3,44.5 -182,216.2 20.4,384.3 20.4,384.3 -20,6.5 -41.6,7.9 -63.9,4 -44.6,-7.9 -79.5,-34.9 -98,-76.3 -17.3,-38.2 -34.7,-76.3 -52.2,-113.5 -23.2,-49.3 -15.1,-104.5 21.2,-145 161.4,-180.3 340.9,-372 528.8,-558 33.6,-33.2 78.3,-45.7 124.2,-34.8 45.9,11 80.1,42.4 95,87.1 18.6,55.6 36.9,111.9 54.9,168.4 16.4,51.2 1.8,104.1 -38.4,139.7 -37.8,33.5 -74.7,66.7 -110.7,99.6"
         style="fill:#e6e6e6;fill-opacity:1;fill-rule:evenodd;stroke:none"
         id="path52" />
      <path
         d="m 17194.5,22079.1 c 154.8,-694.3 -860.9,-74.9 -807.5,164 53.3,239 303.2,179.1 303.2,179.1 -27.7,20.7 -55.1,41.6 -82.3,62.6 -35,27 -77.2,34.8 -119.5,21.9 -42.4,-12.8 -73.2,-42.7 -87.3,-84.7 -22.2,-66.2 -44.7,-131.3 -67.3,-194.6 -18.9,-52.7 -4,-108.8 38.5,-145.3 184.3,-158.3 370,-300 548.8,-410.6 38.2,-23.6 75.6,-45.3 112.1,-65.2 58.8,-31.9 131,-15.6 170.4,38.4 45.9,62.8 89.7,126.3 131.3,190.3 20.6,31.6 26.7,66.5 17.9,103.2 -8.7,36.6 -29.8,65 -62.5,84 -32.1,18.6 -64,37.6 -95.8,56.9"
         style="fill:#e6e6e6;fill-opacity:1;fill-rule:evenodd;stroke:none"
         id="path54" />
      <path
         d="m 17909.2,22008 c 63,-25.9 126.3,-49.7 189.8,-71.2 63.2,-21.4 131.5,6.7 161.3,66.4 99.5,199.7 185.6,447.8 262.1,737.5 15.7,59.6 -10.3,120.3 -64.3,150.1 -45.2,24.8 -89.6,50.3 -133.1,76.2 -35.6,21.3 -75.1,24.8 -114,10.4 -38.9,-14.4 -66.4,-42.8 -79.6,-82.1 -19.8,-58.8 -40.8,-118.2 -63,-178 95.9,176.3 426.3,191.1 338.6,-191.1 -95.9,-418.1 -410,-522.4 -455.8,-413.9 -45.8,108.5 -2.7,308.2 -2.7,308.2 -33.6,-76.8 -69.5,-153.8 -107.7,-230.9 -16.9,-34.2 -18.7,-70 -5.2,-105.7 13.4,-35.7 38.3,-61.4 73.6,-75.9"
         style="fill:#e6e6e6;fill-opacity:1;fill-rule:evenodd;stroke:none"
         id="path56" />
      <path
         d="m 18454.8,23197.4 c 37.5,-22.4 79.6,-25.3 119.9,-8.1 40.2,17.1 67.3,49.4 77.2,92.1 76.6,329.8 141.1,618.9 190.9,880 11.7,61.2 -19.3,120.6 -76.2,146 -52.8,23.5 -101.6,46.3 -146.4,68 -40.1,19.5 -83.3,18.3 -122.3,-3.4 -38.9,-21.6 -62.8,-57.6 -67.5,-102 -5.6,-53.3 -12.4,-110.9 -20.7,-172.3 168.5,214.2 275.6,5.3 284.9,-267.1 9.3,-272.5 -149.3,-606.7 -279.9,-544.5 -130.8,62.2 -108.2,236.7 -108.2,236.7 -8.2,-36.3 -16.8,-73 -25.8,-110.3 -13.7,-56.1 8.8,-112.1 57.5,-143.2 38.1,-24.3 77,-48.3 116.6,-71.9"
         style="fill:#e6e6e6;fill-opacity:1;fill-rule:evenodd;stroke:none"
         id="path58" />
      <path
         d="m 16328.7,23897.4 c 168,-629.1 -402.6,-322.5 -538.4,-191.2 -106.3,102.8 -54.1,302.3 -26.5,384 -25.3,-68.1 -59.8,-159.3 -100.6,-263.3 -19.1,-48.5 -9.4,-100.3 26,-138.5 118.7,-128.6 281.6,-297.2 477.4,-480.8 34.7,-32.6 80.2,-43.8 126,-31.2 45.9,12.7 79.2,45.6 92.3,91.3 46.7,162.8 87.6,311.6 120,431.8 18,66.9 -18.1,135.9 -83.3,159.3 -30.4,10.9 -61.4,23.8 -92.9,38.6"
         style="fill:#e6e6e6;fill-opacity:1;fill-rule:evenodd;stroke:none"
         id="path60" />
      <path
         d="m 16683.6,23350 c -34.1,-121.6 -72.4,-254.9 -113.7,-393 -15.6,-52.5 0.9,-106.2 43.3,-140.8 245.5,-200.1 518.4,-397.7 806,-564.3 32.9,-19.1 68.3,-23.2 104.7,-12.3 36.4,11 63.7,34 80.6,68.1 136.9,275.6 242,551.7 322.6,813.1 16.9,54.5 -1.5,111 -47.1,145.2 -95.2,71.3 -183.6,142.6 -264.8,211.4 402.5,-626.7 -256.6,-1031 -681.8,-745.9 -267.2,179.2 -278.4,445.5 -249.8,618.5"
         style="fill:#e6e6e6;fill-opacity:1;fill-rule:evenodd;stroke:none"
         id="path62" />
      <path
         d="m 17401.8,24037.8 c 107.6,-111.2 263.2,-261.4 457.9,-420.7 36.9,-30.3 83.3,-38.3 128.3,-22.4 45.1,16 76,51.5 85.6,98.3 69.2,335.7 98.4,615.4 110.7,792.2 2.1,29.8 -5.4,58.1 -20.5,81.4 -166.4,-1074.3 -386.3,-680 -553,-533.5 -166.7,146.4 -80,384.6 -80,384.6 -40.8,-69.6 -87,-139.7 -138.6,-206.4 -40.7,-52.6 -36.6,-125.7 9.6,-173.5"
         style="fill:#e6e6e6;fill-opacity:1;fill-rule:evenodd;stroke:none"
         id="path64" />
      <path
         d="m 20610.7,26254.7 c -119,8 -253.2,92.3 -413.5,298.9 -288,371.4 -221.3,523 -117.9,758.1 80,182 189.6,431.3 55.1,1018.4 -267.7,1168.1 227.4,2394.8 317,2602.8 1.9,4.3 25.8,55.9 29.1,62.8 133.4,272.9 287.2,520 457.6,741.5 585.4,760.9 1367.5,1224 2190.7,1407.2 822.7,183 1686.5,85.7 2435.8,-273.7 223.1,-107 435.8,-237 634,-389.4 691,-531.6 1077.5,-1293.6 1273.6,-2070 295.3,-1168.7 156.6,-2379.5 -19.8,-2868.7 -164.8,-456.9 -455.5,-823.6 -681.8,-1059.6 -10.2,-10.6 -12.2,-26.1 -4.9,-39 121.9,-215.6 141.6,-392.6 101.8,-530.6 -26.9,-93 -79.9,-167 -147.8,-223 -64.4,-53 -141.5,-88.9 -221.2,-108.6 -83.6,-20.7 -172.4,-23.4 -254.2,-9.3 -17.6,3 -34.3,-8.4 -37.9,-25.9 -103.8,-512.1 -382,-1092.5 -745.5,-1670.5 -515.1,-819.2 -1203.6,-1638.3 -1804.8,-2246.8 -224,-226.6 -452.7,-358.1 -679.6,-409.7 -204.8,-46.5 -405.4,-27.8 -597.6,45.3 -185.8,70.7 -362.7,192.4 -527,354.7 -439.2,434 -793.4,1169 -980.3,1991.8 -280,1231.9 -263,2170.9 -230.2,2607.9 0.7,9.1 -2,17.2 -8,24.1 -5.9,6.9 -13.5,10.6 -22.7,11.3"
         style="fill:#000000;fill-opacity:1;fill-rule:evenodd;stroke:none"
         id="path66" />
      <path
         d="m 27328.9,29038 c -28.7,-22.7 -55.6,-41.5 -81,-56.6 v -0.1 c -441.2,-404.2 -692.1,63 -1014,166 -321.9,103.1 -579.5,51.5 -1004.4,-289.7 -424.9,-341.2 -1068.8,-321.9 -1068.8,-321.9 0,0 573,238.2 579.5,791.9 6.4,553.7 -437.8,862.7 -946.5,849.9 -508.6,-12.9 -573,-585.9 -573,-585.9 -656.7,334.8 -714.7,-161 -1564.5,-193.2 -849.5,-32.1 -1214.2,657.4 -1214.5,658 -110.8,-465.4 -186.4,-1075.9 -50.8,-1667.6 154,-672.3 24.3,-967.5 -70.6,-1183.2 -65.1,-148.1 -107.1,-243.6 85,-491.3 149.8,-193.2 230.2,-208.3 288.8,-162.9 45.4,35.3 93.4,96.7 142.4,159.4 100.8,129 204.6,262.1 367.4,301.9 184.4,45.3 362.9,81.7 559.9,49.6 199,-32.4 405.1,-132.9 633,-360.9 168.7,-168.7 457.7,-99.9 789.9,-20.8 320.4,76.2 737.6,71.3 958.8,-107.5 11.7,-9.5 15.5,-25.2 9.3,-39 -6.1,-13.8 -20.3,-21.5 -35.2,-19.2 -78.4,12.4 -157.5,16.3 -236.3,14.3 -13.2,-0.3 -24.4,-7.9 -29.5,-20.1 -5.2,-12.2 -2.9,-25.4 6.1,-35.2 166.8,-181.2 478.9,-399.3 979.7,-321.8 912.2,141.3 1094.5,-32.7 1313.4,-241.8 l 44.6,-42.6 c 0.1,-0.1 0.2,-0.2 0.4,-0.3 46.1,-42.6 143.6,-53.5 237.7,-30.1 43.7,10.8 84.7,29.4 117.1,56.1 28.8,23.7 51.2,54.7 62.3,93.2 18,62.2 9.8,145.2 -38.7,252.3 -4.4,9.7 -12.4,16.2 -22.8,18.6 -10.5,2.3 -20.4,-0.2 -28.6,-7.1 -47.5,-40.5 -75.8,-61.9 -76.3,-62.2 51.5,192.8 439.9,565.4 756.5,1443 97.6,270.7 182.1,780 177.1,1381.2 -0.1,12.9 -7.1,23.9 -18.8,29.4 -11.6,5.6 -24.5,4.2 -34.6,-3.8"
         style="fill:#ffffff;fill-opacity:1;fill-rule:nonzero;stroke:none"
         id="path68" />
      <path
         d="m 20386.9,29794.8 c -76.2,-420.7 -107.5,-919.6 4,-1406 154,-672.3 24.3,-967.5 -70.6,-1183.2 -65.1,-148.1 -107.1,-243.6 85,-491.3 149.8,-193.2 230.2,-208.3 288.8,-162.9 45.4,35.3 93.4,96.7 142.4,159.4 100.8,129 204.6,262.1 367.4,301.9 184.4,45.3 362.9,81.7 559.9,49.6 199,-32.4 405.1,-132.9 633,-360.9 168.7,-168.7 457.7,-99.9 789.9,-20.8 320.4,76.2 737.6,71.3 958.8,-107.5 11.7,-9.5 15.5,-25.2 9.3,-39 -6.1,-13.8 -20.3,-21.5 -35.2,-19.2 -78.4,12.4 -157.5,16.3 -236.3,14.3 -13.2,-0.3 -24.4,-7.9 -29.5,-20.1 -5.2,-12.2 -2.9,-25.4 6.1,-35.2 166.8,-181.2 478.9,-399.3 979.7,-321.8 912.2,141.3 1094.5,-32.7 1313.4,-241.8 l 44.6,-42.6 c 0.1,-0.1 0.2,-0.2 0.4,-0.3 46.1,-42.6 143.6,-53.5 237.7,-30.1 43.7,10.8 84.7,29.4 117.1,56.1 28.8,23.7 51.2,54.7 62.3,93.2 18,62.2 9.8,145.2 -38.7,252.3 -4.4,9.7 -12.4,16.2 -22.8,18.6 -10.5,2.3 -20.4,-0.2 -28.6,-7.1 -47.5,-40.5 -75.8,-61.9 -76.3,-62.2 51.5,192.8 439.9,565.4 756.5,1443 97.6,270.7 182.1,780 177.1,1381.2 -169.6,-1027.7 -382.3,-1429.6 -1077.7,-1448.9 -695.3,-19.3 -695.3,-508.6 -695.3,-508.6 173.8,373.4 817.7,328.3 746.8,-289.8 -70.8,-618.1 -733.9,-424.9 -1055.9,-418.4 -321.9,6.4 -791.9,-302.6 -811.2,-25.8 -19.3,276.9 199.6,321.9 199.6,321.9 -476.5,379.9 -746.9,225.4 -1294.2,231.9 -547.3,6.4 -798.4,122.3 -1107.4,321.8 -309.1,199.6 -283.3,392.8 -283.3,392.8 -231.8,-791.9 -1204,-315.5 -1197.6,135.2 6.5,450.7 -128.7,534.4 -276.8,952.9 -147.8,417.6 -142.5,1114.6 -142.4,1117.4"
         style="fill:#e6e6e6;fill-opacity:1;fill-rule:nonzero;stroke:none"
         id="path70" />
      <path
         d="m 20795.5,31032.8 c -27.4,-89.8 -163.5,-594.9 158.9,-858.6 93.6,-76.6 200.6,-101.1 302.5,-84.3 54.4,9 107.8,29.3 157.6,59.5 50.8,30.8 98.7,72.7 140.8,124.2 114.5,139.9 178.8,346.3 138.8,588.8 -61.3,371 -59.9,663.3 7.8,875.2 77.6,243.1 234.7,384.4 475.3,421.7 67.3,10.5 128.7,10.1 184.3,-0.4 104.7,-19.8 187.3,-72.9 249,-154.9 54.8,-73.1 90.4,-167.6 107.9,-280.4 25.3,-163.3 13.5,-369.8 -31.3,-606.8 -35.5,-188.1 49.9,-373.7 176.9,-491.1 48.1,-44.5 101.7,-78.5 156,-98.1 48.3,-17.4 96.9,-23 141.4,-13.5 77.5,16.4 150.2,83.8 199.9,221.1 110.2,304.2 129.5,530.6 144.5,705 19.8,231.7 33.2,387.4 202.2,534.2 63.2,54.9 128.8,84.7 193.9,92.1 84.3,9.6 161.2,-17.9 226.1,-77.2 l 0.3,0.3 c 52.7,-48.2 95.7,-117.6 125.3,-203.9 54.3,-157.7 68.5,-385.4 17.4,-650.1 -14.2,-73.4 -20.9,-130.4 -21.3,-173.2 -0.1,-12.5 6.3,-23.3 17.3,-29.3 11,-5.9 23.5,-5.4 33.9,1.6 53.2,35.4 113.7,93.3 171.2,162 75.5,90.2 155.8,154.3 234.5,183.9 75.5,28.3 149.4,27.6 218.6,-7.1 61.8,-30.9 113,-87 149.7,-171.3 52.5,-120.3 79.7,-314.3 67.3,-597.8 -15.2,-347.4 5.7,-651.1 92.6,-831.3 63.2,-131.2 179.3,-180 372.3,-92.5 177.3,80.4 212.2,258.7 241.3,407.8 15.2,77.7 29.3,149.5 58.7,214.7 87.1,192.8 243.3,273 658,85.7 436.7,-197.2 503.2,-624.3 549.5,-921.5 15.8,-101.5 28.3,-181.9 36,-188.6 4.4,-3.9 48.2,65.9 204.3,247.4 6,6.9 8.7,15 7.9,24.1 -23.5,291.7 -69.8,595.5 -146,897.3 -183.4,725.6 -541.5,1435.4 -1178.8,1925.6 -184,141.6 -380.9,262 -586.7,360.7 -696.5,334.1 -1500.1,424.4 -2265.9,254 -765.5,-170.3 -1493.4,-601.8 -2039.2,-1311.3 -126.5,-164.4 -243.2,-343.5 -348.1,-537.7 -1.1,-2 -1.9,-3.8 -2.6,-6"
         style="fill:#ffffff;fill-opacity:1;fill-rule:evenodd;stroke:none"
         id="path72" />
      <path
         d="m 20795.5,31032.8 c -27.4,-89.8 -163.5,-594.9 158.9,-858.6 93.6,-76.6 200.6,-101.1 302.5,-84.3 54.4,9 107.8,29.3 157.6,59.5 50.8,30.8 98.7,72.7 140.8,124.2 114.5,139.9 178.8,346.3 138.8,588.8 -23.9,144.3 -38.2,276.8 -42.9,397.2 -7.3,-860.3 -658.3,-831.1 -754.9,-496.3 -96.6,334.8 249.9,813.2 249.9,813.2 -126.5,-164.4 -243.2,-343.5 -348.1,-537.7 -1.1,-2 -1.9,-3.8 -2.6,-6 z m 1815,971.2 c 54.8,-73.1 90.4,-167.6 107.9,-280.4 25.3,-163.3 13.5,-369.8 -31.3,-606.8 -35.5,-188.1 49.9,-373.7 176.9,-491.1 48.1,-44.5 101.7,-78.5 156,-98.1 48.3,-17.4 96.9,-23 141.4,-13.5 77.5,16.4 150.2,83.8 199.9,221.1 110.2,304.2 129.5,530.6 144.5,705 2.4,28.4 4.7,55.6 7.3,81.9 -216.1,-799.3 -672.4,-739.5 -646.6,-205.1 25.7,534.4 -256,687 -256,687 z m 1628.1,-178.7 c 5.4,-12.8 10.4,-26 15,-39.6 54.3,-157.7 68.5,-385.4 17.4,-650.1 -14.2,-73.4 -20.9,-130.4 -21.3,-173.2 -0.1,-12.5 6.3,-23.3 17.3,-29.3 11,-5.9 23.5,-5.4 33.9,1.6 53.2,35.4 113.7,93.3 171.2,162 75.5,90.2 155.8,154.3 234.5,183.9 75.5,28.3 149.4,27.6 218.6,-7.1 61.8,-30.9 113,-87 149.7,-171.3 52.5,-120.3 79.7,-314.3 67.3,-597.8 -15.2,-347.4 5.7,-651.1 92.6,-831.3 63.2,-131.2 179.3,-180 372.3,-92.5 177.3,80.4 212.2,258.7 241.3,407.8 15.2,77.7 29.3,149.5 58.7,214.7 87.1,192.8 243.3,273 658,85.7 436.7,-197.2 503.2,-624.3 549.5,-921.5 15.8,-101.5 28.3,-181.9 36,-188.6 4.4,-3.9 48.2,65.9 204.3,247.4 6,6.9 8.7,15 7.9,24.1 -23.5,291.7 -69.8,595.5 -146,897.3 -59,233.3 -136.1,465 -234.6,688.3 178.3,-625 -11.3,-797.2 -346,-610.5 -334.9,186.7 -656.8,296.1 -856.3,-225.4 -199.6,-521.5 -379.9,-70.8 -405.7,122.3 -25.7,193.2 35.5,824.2 -241.4,1078.5 -276.8,254.3 -656.7,25.7 -656.7,25.7 -16.1,222.2 -237.5,398.9 -237.5,398.9"
         style="fill:#e6e6e6;fill-opacity:1;fill-rule:nonzero;stroke:none"
         id="path74" />
      <path
         d="m 21683.7,25473.7 c 255.8,383.7 505,705.3 658.4,895.6 6.3,7.7 8.6,16.8 6.9,26.5 -1.8,9.7 -7.1,17.4 -15.6,22.5 -42.7,25.4 -83.7,57.3 -123,96.7 -184.1,184 -341.9,263.8 -488.9,287.7 -149,24.3 -299,-6.9 -455.8,-45.4 -46.4,-11.4 -93.6,-54 -140.5,-107.5 -8.1,-9.3 -10.4,-21.3 -6.2,-32.9 63.7,-176.7 230.6,-610.4 508,-1140.2 5.6,-10.6 15.5,-17 27.5,-17.6 11.9,-0.6 22.5,4.7 29.2,14.6"
         style="fill:#ffffff;fill-opacity:1;fill-rule:nonzero;stroke:none"
         id="path76" />
      <path
         d="m 21055.6,24368.4 c 122.1,269.4 271,538.3 426.3,790.8 6.4,10.4 6.7,22.5 0.9,33.1 -237.1,432.6 -406.4,816 -511.4,1076.2 -5.8,14.3 -20.2,22.5 -35.5,20.2 -15.2,-2.3 -26.6,-14.3 -27.9,-29.7 -27.3,-307.4 -54.7,-974.1 85,-1882 2.3,-14.6 13.5,-25.7 28.2,-27.6 14.6,-2.1 28.4,5.5 34.4,19"
         style="fill:#ffffff;fill-opacity:1;fill-rule:nonzero;stroke:none"
         id="path78" />
      <path
         d="m 22589.6,24072.1 c 327,498.4 672.7,932.3 967.1,1271.2 11.1,12.8 10.8,31.7 -0.7,44.1 -391.6,422.3 -634.8,773.7 -738,933.5 -6.8,10.5 -18.1,16 -30.6,14.9 -41,-3.7 -81.3,-5.5 -120.5,-4.9 -10.3,0.2 -19.3,-3.9 -25.9,-11.8 -133.5,-160.2 -489.1,-599.7 -833.8,-1135.3 -6.8,-10.6 -7.2,-23.3 -0.9,-34.2 199.6,-348.3 442.4,-721 730,-1080.1 6.8,-8.5 16.4,-12.8 27.3,-12.2 10.8,0.5 20,5.7 26,14.8"
         style="fill:#ffffff;fill-opacity:1;fill-rule:nonzero;stroke:none"
         id="path80" />
      <path
         d="m 21703.4,22328.4 c 181.2,514.5 430.2,1005.4 702.6,1453.1 7.4,12.2 6.3,27.1 -2.8,38.1 -285.3,345.6 -529.6,705.6 -734.3,1047.7 -6.2,10.3 -16.5,16.2 -28.4,16.1 -12,0 -22.3,-5.9 -28.3,-16.3 -209,-356.2 -395.9,-736.7 -502.6,-1095.6 -1.7,-5.7 -1.9,-10.8 -0.7,-16.5 6.3,-28.5 12.6,-57.1 19.2,-86 114.6,-504.6 293.5,-971.8 515.8,-1346.5 6.7,-11.2 18.5,-17.2 31.6,-16 13,1.3 23.5,9.5 27.9,21.9"
         style="fill:#ffffff;fill-opacity:1;fill-rule:nonzero;stroke:none"
         id="path82" />
      <path
         d="m 24940.8,24547.4 c 475.9,511.7 860.6,855.5 981.5,960.9 5.4,4.7 8.8,10.3 10.4,17.3 14.3,60.8 25.9,120.5 34.7,178.9 1.6,11 -1.9,21.1 -9.9,28.8 -162.4,154.3 -316.2,277.2 -1077.7,159.2 -158.9,-24.5 -302.5,-24.7 -431.9,-7.3 -10.2,1.3 -19.7,-1.7 -27.2,-9 -84,-80.7 -252.2,-246.6 -465.9,-480.6 -11.9,-13.1 -11.5,-33.1 1,-45.6 259.3,-259.2 572.4,-536.8 941.4,-806.7 13.6,-10 32.2,-8.2 43.6,4.1"
         style="fill:#ffffff;fill-opacity:1;fill-rule:nonzero;stroke:none"
         id="path84" />
      <path
         d="m 23689.7,22999.8 c 337.7,489.8 697.6,931.2 1029,1303.5 6.4,7.1 9.1,15.7 8.1,25.3 -1,9.6 -5.4,17.4 -13.1,23.1 -361.6,267.2 -670.9,541.6 -929.7,799.3 -6.7,6.8 -15,10 -24.5,9.7 -9.5,-0.4 -17.5,-4.2 -23.7,-11.4 -300.2,-346.9 -652.8,-792.8 -980.8,-1303.3 -8.1,-12.6 -6.9,-28.5 3,-39.7 262.2,-295.9 556.9,-575.1 885.2,-814.4 7.5,-5.4 15.8,-7.4 24.9,-5.9 9.2,1.6 16.4,6.2 21.6,13.8"
         style="fill:#ffffff;fill-opacity:1;fill-rule:nonzero;stroke:none"
         id="path86" />
      <path
         d="m 22825.3,21478.4 c 193,436.7 428.3,856.4 682.5,1249.1 9.5,14.8 5.8,34.3 -8.4,44.6 -321.1,233.4 -611.3,502.7 -871.4,788.2 -7.3,8 -17,11.7 -27.7,10.6 -10.7,-1.1 -19.5,-6.7 -25,-15.9 -282.5,-476.5 -534.1,-999.5 -700.5,-1545.2 -3.3,-10.8 -1.2,-21.6 6,-30.3 50.4,-62.2 102.3,-119.9 155.5,-172.4 138.5,-136.9 285.1,-238.5 436.3,-296 105.9,-40.2 214.5,-58.7 324.5,-52.3 12.6,0.7 23.1,8 28.2,19.6"
         style="fill:#ffffff;fill-opacity:1;fill-rule:nonzero;stroke:none"
         id="path88" />
      <path
         d="m 23724.5,22579.2 c -186.4,-288.7 -362.2,-592 -517.5,-906 -6.9,-13.6 -3.6,-29.6 8,-39.6 11.6,-9.9 27.9,-10.7 40.4,-2 70.6,49.4 141.8,109.8 213.1,182.1 176.8,178.9 361.1,376.2 546.3,586.4 6.8,7.8 9.5,17.3 7.7,27.5 -1.8,10.2 -7.6,18.2 -16.7,23.2 -80.3,43.9 -159,90.1 -236.1,138.4 -15.2,9.6 -35.4,5.1 -45.2,-10"
         style="fill:#e6e6e6;fill-opacity:1;fill-rule:nonzero;stroke:none"
         id="path90" />
      <path
         d="m 24939.2,24156.1 c -331.3,-370.1 -693,-811.7 -1031.6,-1302.7 -5.3,-7.7 -7,-16.3 -5.1,-25.4 1.9,-9.2 6.9,-16.3 14.8,-21.3 90.1,-56.1 182.5,-109.2 277.1,-158.7 13.9,-7.3 30.5,-4 40.5,8 347.7,413.3 688.2,864.6 975.9,1316.6 4.9,7.7 6.3,16.1 4.4,24.9 -2,8.9 -6.9,15.8 -14.5,20.7 -74.6,47.2 -147.4,95 -218.5,143.2 -13.7,9.3 -31.9,7.1 -43,-5.3"
         style="fill:#e6e6e6;fill-opacity:1;fill-rule:nonzero;stroke:none"
         id="path92" />
      <path
         d="m 25642.8,24890.4 c -139.7,-136.2 -302.3,-300.2 -478.4,-488.3 -6.8,-7.3 -9.8,-16.3 -8.7,-26.2 1.2,-10 6.1,-18.1 14.4,-23.7 54.6,-36.5 110.3,-72.8 167,-108.8 7.8,-4.9 16.4,-6.3 25.4,-4.2 9,2.3 16,7.5 20.7,15.4 118.4,202.5 224,403.2 312.6,598.6 6.6,14.5 2,31.3 -11.1,40.6 -13.1,9.1 -30.5,7.8 -41.9,-3.4"
         style="fill:#e6e6e6;fill-opacity:1;fill-rule:nonzero;stroke:none"
         id="path94" />
      <path
         d="m 23116.2,26347 c 118.9,-172.6 321,-443.7 610.6,-758.4 6.5,-7 14.8,-10.6 24.3,-10.6 9.6,0 17.8,3.6 24.3,10.7 128.6,140.6 240.6,256.5 327.7,344.1 7.9,7.9 11.1,18.2 9.1,29.2 -2,11 -8.7,19.5 -18.9,24 -293.2,132.7 -472.9,351 -559.7,481 -7.6,11.3 -20.6,16.7 -33.9,14 -85.9,-17.4 -170.3,-37.4 -252.2,-57 -37.7,-8.9 -74.8,-17.7 -111.6,-26.2 -10.9,-2.5 -19.2,-9.7 -23.2,-20.2 -4.1,-10.4 -2.9,-21.3 3.5,-30.6"
         style="fill:#ffffff;fill-opacity:1;fill-rule:nonzero;stroke:none"
         id="path96" />
      <path
         d="m 21063.5,25076.5 c -179,283.9 -176.7,750 -175.4,816.3 -8.9,-358.8 6.7,-877.7 104.9,-1515.8 2.3,-14.6 13.5,-25.7 28.2,-27.6 14.6,-2.1 28.4,5.5 34.4,19 122.1,269.4 271,538.3 426.3,790.8 6.4,10.4 6.7,22.5 0.9,33.1 -73.5,134.1 -140.5,263.5 -201,385.9 70.1,-393.2 -25.3,-807.8 -218.3,-501.7"
         style="fill:#e6e6e6;fill-opacity:1;fill-rule:evenodd;stroke:none"
         id="path98" />
      <path
         d="m 21234.2,26319 c 88.9,-216.8 219.2,-510.7 392.8,-842.3 5.6,-10.6 15.5,-17 27.5,-17.6 11.9,-0.6 22.5,4.7 29.2,14.6 255.8,383.7 505,705.3 658.4,895.6 6.3,7.7 8.6,16.8 6.9,26.5 -1.8,9.7 -7.1,17.4 -15.6,22.5 -42.7,25.4 -83.7,57.3 -123,96.7 -98.7,98.6 -189.8,167.3 -275.7,213.5 310.9,-345.9 -103.2,-1038.4 -330.4,-879.4 -227.2,159.1 -370.1,469.9 -370.1,469.9"
         style="fill:#e6e6e6;fill-opacity:1;fill-rule:evenodd;stroke:none"
         id="path100" />
      <path
         d="m 22408.6,26029.6 c -167,-214.8 -386.3,-511.6 -601.4,-845.8 -6.8,-10.6 -7.2,-23.3 -0.9,-34.2 199.6,-348.3 442.4,-721 730,-1080.1 6.8,-8.5 16.4,-12.8 27.3,-12.2 10.8,0.5 20,5.7 26,14.8 327,498.4 672.7,932.3 967.1,1271.2 11.1,12.8 10.8,31.7 -0.7,44.1 -133.4,143.9 -249.6,279.6 -349,402.2 431,-967.4 -1056.5,-1194.1 -1094,-648.7 -25.7,372.7 169.4,711.5 295.6,888.7"
         style="fill:#e6e6e6;fill-opacity:1;fill-rule:evenodd;stroke:none"
         id="path102" />
      <path
         d="m 23177.5,26259.9 c 122.3,-170.5 304.6,-405.3 549.3,-671.3 6.5,-7 14.8,-10.6 24.3,-10.6 9.6,0 17.8,3.6 24.3,10.7 128.6,140.6 240.6,256.5 327.7,344.1 7.9,7.9 11.1,18.2 9.1,29.2 -2,11 -8.7,19.5 -18.9,24 -221.8,100.4 -378.7,249.8 -479.5,372.9 106.7,-229.1 85.7,-421.5 -65,-387.4 -170.7,38.6 -371.3,288.4 -371.3,288.4"
         style="fill:#e6e6e6;fill-opacity:1;fill-rule:evenodd;stroke:none"
         id="path104" />
      <path
         d="m 24420.7,25876.2 c -84,-80.7 -252.2,-246.6 -465.9,-480.6 -11.9,-13.1 -11.5,-33.1 1,-45.6 259.3,-259.2 572.4,-536.8 941.4,-806.7 13.6,-10 32.2,-8.2 43.6,4.1 475.9,511.7 860.6,855.5 981.5,960.9 5.4,4.7 8.8,10.3 10.4,17.3 14.3,60.8 25.9,120.5 34.7,178.9 1.6,11 -1.9,21.1 -9.9,28.8 -78.5,74.6 -155,141.9 -299.1,178.1 -201.6,-1907.9 -1678.3,-661 -1330.6,-371.3 347.7,289.7 797.9,384.6 797.9,384.6 -74.1,-7.6 -155.8,-18.2 -245.9,-32.2 -158.9,-24.5 -302.5,-24.7 -431.9,-7.3 -10.2,1.3 -19.7,-1.7 -27.2,-9"
         style="fill:#e6e6e6;fill-opacity:1;fill-rule:evenodd;stroke:none"
         id="path106" />
      <path
         d="m 24713.7,24351.7 c -126.9,93.8 -247.4,188.4 -361.5,282.9 0,0 114.1,-427.3 -326.9,-1013.2 -441,-585.8 -1393.4,-15.8 -802.9,893.6 -156,-206.6 -314.4,-430.8 -467.4,-669 -8.1,-12.6 -6.9,-28.5 3,-39.7 262.2,-295.9 556.9,-575.1 885.2,-814.4 7.5,-5.4 15.8,-7.4 24.9,-5.9 9.2,1.6 16.4,6.2 21.6,13.8 337.7,489.8 697.6,931.2 1029,1303.5 6.4,7.1 9.1,15.7 8.1,25.3 -1,9.6 -5.4,17.4 -13.1,23.1"
         style="fill:#e6e6e6;fill-opacity:1;fill-rule:evenodd;stroke:none"
         id="path108" />
      <path
         d="m 21703.4,22328.4 c 181.2,514.5 430.2,1005.4 702.6,1453.1 7.4,12.2 6.3,27.1 -2.8,38.1 -121.5,147.2 -235.6,297 -342.4,447 0,0 406.4,-600.1 -192.4,-1044.3 -525,-389.6 -756.8,437.2 -637.1,890.4 -47.2,-114.9 -88.4,-229.1 -121.7,-341.2 -1.7,-5.7 -1.9,-10.8 -0.7,-16.5 6.3,-28.5 12.6,-57.1 19.2,-86 114.6,-504.6 293.5,-971.8 515.8,-1346.5 6.7,-11.2 18.5,-17.2 31.6,-16 13,1.3 23.5,9.5 27.9,21.9"
         style="fill:#e6e6e6;fill-opacity:1;fill-rule:evenodd;stroke:none"
         id="path110" />
      <path
         d="m 23159.5,23041.6 c 402.6,-1082.1 -930.5,-1216.5 -1027.1,-791.5 -54.7,240.8 52.5,553.9 155.7,780.1 -163.4,-326.4 -306,-668.7 -413.3,-1020.4 -3.3,-10.8 -1.2,-21.6 6,-30.3 50.4,-62.2 102.3,-119.9 155.5,-172.4 138.5,-136.9 285.1,-238.5 436.3,-296 105.9,-40.2 214.5,-58.7 324.5,-52.3 12.6,0.7 23.1,8 28.2,19.6 193,436.7 428.3,856.4 682.5,1249.1 9.5,14.8 5.8,34.3 -8.4,44.6 -117.4,85.3 -230.7,175.5 -339.9,269.5"
         style="fill:#e6e6e6;fill-opacity:1;fill-rule:evenodd;stroke:none"
         id="path112" />
      <path
         d="m 23967.6,29855.5 c 302.2,0 547.3,-245 547.3,-547.3 0,-302.2 -245.1,-547.2 -547.3,-547.2 -302.3,0 -547.3,245 -547.3,547.2 0,302.3 245,547.3 547.3,547.3"
         style="fill:#000000;fill-opacity:1;fill-rule:evenodd;stroke:none"
         id="path114" />
      <path
         d="m 10993.6,13236.9 c 110,706.6 527.1,1358.8 1194.4,1744.1 667.4,385.3 1440.8,420.4 2107.6,162.4 -110,-706.5 -527,-1358.8 -1194.4,-1744.1 -667.4,-385.3 -1440.8,-420.3 -2107.6,-162.4 z m 5517.5,2469.2 c -209,55.9 -415.3,118.4 -618.6,186.9 -443.7,156 -880.8,338.2 -1309.1,546.6 -538.8,271.3 -1049.9,589.6 -1528.2,949 l -7.3,5.1 h 0.6 c -2451.7,1845.5 -4037.17,4779.9 -4037.17,8084.9 0,1725.1 431.86,3349.2 1193.47,4770.3 -973.35,-1588.1 -1534.42,-3456.2 -1534.42,-5455.3 0,-3872 2123.82,-7314.9 5338.52,-9120.9 h -0.1 l 8.8,-4.8 c 451.8,-253.2 924.9,-474.3 1416.7,-659.5 60.2,-22.6 120.3,-44.5 180.3,-65.5 2759.8,-1027.3 5790.2,-1048.5 8554.5,-72.9 131.8,42.6 264,88.5 396.6,138.4 630.4,237.4 1230.1,533.6 1793.2,881.1 l 4.6,2.6 -0.2,0.1 c 3005.5,1856.6 4966.4,5180.9 4966.4,8901.4 0,1999.1 -561.1,3867.2 -1534.4,5455.3 761.5,-1421.1 1193.4,-3045.2 1193.4,-4770.3 0,-3269 -1551.2,-6175.1 -3957.4,-8023.9 h 0.4 l -3.6,-2.6 c -351.3,-269.7 -720.7,-516.9 -1106.3,-739.4 -708.9,-388.2 -1446.9,-702.3 -2203,-941.9 -87,-25.4 -174.5,-49.9 -262.5,-73.2 -323,-96.6 -649.3,-178.9 -977.7,-247.8 v -2 c -181.7,-37.4 -364,-70.6 -546.8,-99.8 -1027.4,-166.5 -2071.8,-199.5 -3106.1,-98.8 -46.5,4.4 -93.1,9 -139.6,13.9 l -15.6,1.6 c -390.5,41.9 -779.6,102.5 -1166,181.8 v 5.3 c -333.7,70.5 -665.2,155.3 -993.4,254.3 z m -8923.83,1283.8 c 207.06,582.2 666.13,1069 1294.81,1288.8 628.63,219.8 1291.02,125.2 1815.72,-201.2 -207,-582.2 -666,-1069 -1294.77,-1288.8 -628.67,-219.8 -1291.03,-125.1 -1815.76,201.2 z m -933.42,3935.4 c 275.92,384.1 716.79,644.8 1225.8,672.9 509.06,28.2 976.06,-181.9 1292.6,-533.4 -275.72,-384.1 -716.74,-644.7 -1225.7,-672.9 -509.1,-28.1 -976.12,181.9 -1292.7,533.4 z m -608.79,3643.4 c 374.14,289.4 870.96,413.4 1366.92,295 495.83,-118.2 883.42,-453 1086.52,-880.2 -373.94,-289.4 -870.94,-413.3 -1366.72,-295.1 -496.02,118.4 -883.62,453 -1086.72,880.3 z m 303.17,3081.5 c 441.22,170.4 952.77,147.1 1394.22,-108 441.31,-255 717.11,-686.6 789.6,-1154.1 -441.04,-170.4 -952.74,-147 -1394.09,108 -441.5,255.2 -717.16,686.7 -789.73,1154.1 z m 1689.45,2353.5 c 304.4,23.3 616.3,-86.1 841.85,-325.9 225.4,-239.7 315.73,-557.6 273.68,-860.1 -304.25,-23.4 -616.21,86.1 -841.7,325.7 -225.55,239.8 -315.83,557.8 -273.83,860.3 z m 3175.42,1884.5 c 101.2,-288 76.3,-617.6 -96.9,-897.4 -173.2,-279.8 -456.9,-449.4 -759.9,-487 -101.4,287.8 -76.4,617.5 96.7,897.3 173.3,279.9 457,449.3 760.1,487.1 z m -635.7,-4314.1 c -180.9,129 -416.5,178 -647.12,113.4 -230.6,-64.6 -406.4,-228.8 -493.93,-433 180.85,-129.1 416.39,-178.1 647.05,-113.5 230.6,64.6 406.4,228.8 494,433.1 z m 489.8,-1792.9 c -280,199.9 -644.6,275.7 -1001.7,175.7 -356.84,-99.9 -628.92,-354.2 -764.47,-670.3 280.01,-199.8 644.6,-275.6 1001.57,-175.7 356.9,100 629,354.2 764.6,670.3 z m 561.8,-1869.6 c -419.7,148.5 -900.4,112.7 -1308.9,-139.1 -408.44,-252.1 -656.09,-665.6 -711.89,-1107.2 419.79,-148.6 900.49,-112.7 1308.99,139.2 408.3,251.8 656,665.3 711.8,1107.1 z m 1196.9,-1803 c -513.7,56.2 -1047.3,-111.9 -1441.8,-504.8 -394.5,-393.2 -564.4,-926.1 -510.1,-1439.8 513.7,-56.4 1047.3,111.9 1441.7,505 394.5,392.9 564.4,925.8 510.2,1439.6 z M 14229.4,20502 c -546.1,-180.7 -1008.6,-598.1 -1226.1,-1178.6 -217.5,-580.8 -142.7,-1199.1 150.1,-1694.1 546.1,180.7 1008.6,598.1 1226,1178.8 217.5,580.5 143,1198.7 -150,1693.9 z m -3076.9,8951.5 c -157.8,156.5 -382.4,242.8 -620.4,216.3 -238,-26.5 -438,-160.3 -557.37,-347.7 157.67,-156.5 382.27,-242.9 620.27,-216.3 238.1,26.5 438,160.3 557.5,347.7 z M 29006.4,13236.9 c -110,706.6 -527.1,1358.8 -1194.4,1744.1 -667.4,385.3 -1440.8,420.4 -2107.6,162.4 110,-706.5 527,-1358.8 1194.4,-1744.1 667.4,-385.3 1440.8,-420.3 2107.6,-162.4 z m 3406.4,3753 c -207.1,582.2 -666.2,1069 -1294.8,1288.8 -628.7,219.8 -1291.1,125.2 -1815.9,-201.1 207.1,-582.3 666.2,-1069.1 1294.9,-1288.9 628.6,-219.8 1291,-125.1 1815.8,201.2 z m 933.3,3935.4 c -275.8,384.2 -716.7,644.8 -1225.7,673 -509.1,28.1 -976,-182.1 -1292.6,-533.4 275.8,-384.2 716.7,-644.8 1225.8,-673 508.9,-28.1 976,182 1292.5,533.4 z m 608.8,3643.4 c -374,289.4 -871,413.4 -1366.8,295 -495.9,-118.2 -883.5,-453.1 -1086.6,-880.1 374,-289.5 870.9,-413.4 1366.8,-295.1 495.9,118.3 883.5,453 1086.6,880.2 z m -303.1,3081.5 c -441.2,170.4 -952.8,147.1 -1394.3,-107.9 -441.4,-255.1 -717,-686.7 -789.6,-1154.1 441.2,-170.5 952.8,-147.1 1394.2,108 441.3,255 717.1,686.6 789.7,1154 z m -1689.4,2353.4 c -304.5,23.5 -616.4,-86.1 -841.9,-325.8 -225.5,-239.7 -315.7,-557.7 -273.8,-860 304.4,-23.5 616.4,85.9 841.9,325.7 225.5,239.7 315.7,557.7 273.8,860.1 z M 28787,31888.2 c -101.4,-288 -76.4,-617.6 96.8,-897.4 173.1,-279.9 456.9,-449.4 760,-487.1 101.4,288 76.4,617.6 -96.8,897.4 -173.2,279.9 -457,449.3 -760,487.1 z m 635.7,-4314.1 c 180.8,128.9 416.4,178 647.1,113.4 230.5,-64.5 406.3,-228.8 493.9,-433 -180.9,-129.1 -416.4,-178.1 -647.1,-113.5 -230.6,64.6 -406.4,228.8 -493.9,433.1 z m -489.8,-1792.9 c 280,199.8 644.6,275.7 1001.5,175.7 356.9,-99.9 629,-354.2 764.5,-670.3 -279.9,-199.7 -644.5,-275.6 -1001.5,-175.7 -356.9,100.1 -629,354.3 -764.5,670.3 z M 28371,23911.6 c 419.7,148.4 900.4,112.7 1308.9,-139.2 408.4,-251.9 656.1,-665.4 711.8,-1107.1 -419.6,-148.5 -900.4,-112.7 -1308.8,139.2 -408.4,251.8 -656.2,665.3 -711.9,1107.1 z m -1196.8,-1803.1 c 513.6,56.3 1047.2,-111.8 1441.6,-504.8 394.4,-393 564.5,-926 510.1,-1439.7 -513.6,-56.4 -1047.1,111.8 -1441.6,504.8 -394.4,393.1 -564.5,926 -510.1,1439.7 z m -1403.5,-1606.6 c 546,-180.8 1008.5,-598.1 1225.9,-1178.6 217.4,-580.6 142.9,-1199 -150.1,-1694 -546.1,180.9 -1008.5,598.1 -1225.9,1178.7 -217.5,580.6 -142.9,1198.9 150.1,1693.9 z m 3076.9,8951.6 c 157.7,156.4 382.3,242.9 620.3,216.3 238,-26.5 438,-160.3 557.3,-347.7 -157.7,-156.5 -382.2,-242.9 -620.2,-216.3 -238.1,26.5 -438,160.3 -557.4,347.7"
         style="fill:#000000;fill-opacity:1;fill-rule:evenodd;stroke:none"
         id="path116" />
      <path
         d="m 19885.5,17023.1 c -330.3,30.3 -662.6,88.7 -993.9,177.5 -970.2,260 -1818.7,747.6 -2503.2,1390.1 746.6,-786.7 1712.7,-1383.8 2837.1,-1685.1 219.5,-58.8 439.7,-104.7 660,-138.3 220.3,33.6 440.5,79.5 660,138.3 1124.4,301.3 2090.5,898.4 2837.1,1685.1 -684.5,-642.5 -1533,-1130.1 -2503.2,-1390.1 -331.3,-88.8 -663.6,-147.2 -993.9,-177.5 z m 929.1,-1628 c 106.4,254 101.3,552.2 -40.1,813.3 -141.2,261.1 -387.9,428.6 -658.8,478.4 -106.4,-253.9 -101.2,-552.1 40,-813.2 141.4,-261.1 388,-428.7 658.9,-478.5 z m 1687.5,634.9 c 29.4,273.9 -60.8,558.1 -270.9,767.9 -209.8,209.8 -494.2,299.9 -768,270.2 -29.4,-273.7 60.9,-558 270.8,-767.8 210,-209.9 494.3,-299.9 768.1,-270.3 z m 1069.1,1304.9 c -32.7,174.7 -141.4,333.7 -310.1,424.4 -168.8,90.6 -361.3,93.5 -525.1,24.3 32.8,-174.6 141.3,-333.6 310.1,-424.3 168.9,-90.7 361.3,-93.6 525.1,-24.4 z m 581.4,2070.1 c -177.2,13.5 -358.9,-50.2 -490.1,-189.7 -131.3,-139.7 -183.9,-324.8 -159.4,-500.9 177.1,-13.6 358.7,50.1 490,189.7 131.4,139.6 184,324.7 159.5,500.9 z m -2330.7,-1007.8 c 99.9,-82.2 163,-207.4 161.4,-346.8 -1.6,-139.5 -67.5,-263.1 -169.2,-343.1 -99.8,82.3 -162.8,207.4 -161.3,346.8 1.6,139.5 67.5,263 169.1,343.1 z m -1082.1,5.3 c 154.6,-127.3 252.1,-321 249.7,-536.9 -2.4,-215.8 -104.4,-407.1 -261.8,-531 -154.5,127.4 -252.2,321 -249.7,536.8 2.4,215.9 104.4,407.2 261.8,531.1 z m 2052.5,601.4 c 111.9,-65.1 194.3,-178.4 215.2,-316.3 21,-137.9 -24.2,-270.5 -111.6,-365.9 -111.7,65.1 -194.2,178.4 -215.2,316.3 -20.9,137.9 24.2,270.5 111.6,365.9 z m -3835.9,-3608.8 c -106.4,254 -101.3,552.2 40.1,813.3 141.2,261.1 387.8,428.6 658.7,478.4 106.5,-253.9 101.3,-552.1 -39.9,-813.2 -141.4,-261.1 -388,-428.7 -658.9,-478.5 z m -1687.6,634.9 c -29.3,273.9 60.9,558.1 270.9,767.9 209.9,209.8 494.3,299.9 768.1,270.2 29.4,-273.7 -60.9,-558 -270.8,-767.8 -210,-209.9 -494.3,-299.9 -768.2,-270.3 z m -1069,1304.9 c 32.7,174.7 141.3,333.7 310.1,424.4 168.8,90.6 361.2,93.5 525,24.3 -32.7,-174.6 -141.3,-333.6 -310,-424.3 -168.9,-90.7 -361.3,-93.6 -525.1,-24.4 z m -581.4,2070.1 c 177.2,13.5 358.9,-50.2 490.1,-189.7 131.3,-139.7 183.9,-324.8 159.4,-500.9 -177.2,-13.6 -358.8,50.1 -490.1,189.7 -131.3,139.6 -183.9,324.7 -159.4,500.9 z m 2330.7,-1007.8 c -99.9,-82.2 -163,-207.4 -161.4,-346.8 1.6,-139.5 67.5,-263.1 169.2,-343.1 99.8,82.3 162.9,207.4 161.3,346.8 -1.6,139.5 -67.5,263 -169.1,343.1 z m 1082.1,5.3 c -154.5,-127.3 -252.1,-321 -249.7,-536.9 2.4,-215.8 104.4,-407.1 261.8,-531 154.5,127.4 252.1,321 249.7,536.8 -2.4,215.9 -104.4,407.2 -261.8,531.1 z m -2052.5,601.4 c -111.9,-65.1 -194.3,-178.4 -215.3,-316.3 -20.9,-137.9 24.3,-270.5 111.7,-365.9 111.7,65.1 194.2,178.4 215.2,316.3 20.8,137.9 -24.2,270.5 -111.6,365.9"
         style="fill:#000000;fill-opacity:1;fill-rule:evenodd;stroke:none"
         id="path118" />
      <path
         d="m 6666.56,9157.6 h 984.75 v -580.3 h -1736.5 v 3086 h 751.75 z M 10662.7,7908.2 h -215.8 v -8.1 l 438,-661.9 v -465.6 h 181.7 v 465.6 l 451,661.9 v 8.1 h -219 l -322.9,-501.3 z m 2288.9,21.1 c -170.9,0 -310.9,-56 -420.2,-167.9 -109.2,-112 -163.8,-254.4 -163.8,-427.5 0,-76.8 12.1,-149.5 36.4,-218.2 24.4,-68.7 59.6,-130.6 105.5,-185.7 45.9,-55.2 106.8,-99.3 182.5,-132.3 75.7,-33 161.2,-49.5 256.3,-49.5 95.2,0 180.6,16 256.3,47.9 75.8,31.9 136.6,75.5 182.6,130.6 45.9,55.2 81.1,117.6 105.4,187.4 24.4,69.7 36.5,143.5 36.5,221.4 0,164.4 -50.3,304.2 -150.9,419.4 -100.6,115.2 -242.8,173.3 -426.6,174.4 z m -404,-597 c 0,127.6 35.4,231.4 106.3,311.5 70.8,80 170,120 297.7,120 87.6,-1.1 162.5,-23.5 224.7,-67.3 62.1,-43.9 106.5,-97.1 133,-159.8 26.5,-62.7 39.7,-130.9 39.7,-204.4 0,-119 -33.4,-218.2 -100.5,-297.7 -67.1,-79.5 -167.1,-119.2 -300.2,-119.2 -67,0 -126.8,12.1 -179.2,36.5 -52.5,24.2 -94.4,56.7 -125.7,97.3 -31.4,40.5 -54.9,84.8 -70.6,133 -15.8,48.1 -24.1,98.2 -25.2,150.1 z m 2806.5,574.3 V 7243 c 0,-105.9 -29.3,-187.9 -87.7,-245.8 -58.3,-57.8 -134,-84 -227.1,-78.6 -86.5,3.3 -156.3,32.9 -209.2,89.3 -53.1,56.2 -79.5,134.6 -79.5,235.1 v 663.6 h -180.2 V 7243 c 0,-153.6 44.7,-273.1 133.9,-358.5 89.3,-85.5 200.9,-129.8 335,-133 143.9,-5.4 262.3,34.9 355.3,120.9 93,85.9 139.5,209.5 139.5,370.6 v 663.6 z m 2251.6,-1101.6 -339.1,378 c 104.9,15.2 182.5,55.4 232.8,120.9 50.3,65.4 75.4,143 75.4,232.8 0,101.6 -35.4,189 -106.3,262 -70.8,73 -168.9,109.5 -294.4,109.5 -58.4,0 -146.5,0.3 -264.5,0.8 -117.8,0.6 -206,0.8 -264.3,0.8 V 6772.6 h 181.7 v 392.6 h 240 l 345.6,-392.6 h 212.6 z m -431.6,937.7 c 70.3,0 123.8,-20.8 160.6,-62.4 36.8,-41.6 55.2,-90.6 55.2,-146.9 0,-57.3 -18.4,-105.4 -55.2,-144.3 -36.8,-39 -90.8,-58.5 -162.2,-58.5 H 16827 v 412.1 z m 2297.1,6.5 c -80.1,127.6 -221.2,191.4 -423.4,191.4 -54.1,0 -106,-6.2 -155.8,-18.6 -49.7,-12.4 -96.3,-31.1 -139.5,-56 -43.3,-24.9 -77.9,-58.9 -103.8,-102.2 -26,-43.3 -38.9,-93 -38.9,-149.2 0,-46.6 8.3,-87.9 25.1,-124.2 16.8,-36.2 37.8,-65.7 63.3,-88.4 25.4,-22.7 58.6,-42.1 99.7,-58.4 41.1,-16.2 80.4,-28.6 117.6,-37.3 37.4,-8.7 82,-16.2 133.9,-22.7 90.8,-11.9 161.9,-31.6 213.3,-59.2 51.4,-27.6 77.1,-70 77.1,-127.3 0,-44.4 -14.8,-81.4 -44.6,-111.2 -29.8,-29.7 -65.2,-50.1 -106.3,-60.8 -41.1,-10.8 -86.5,-16.2 -136.3,-16.2 -162.2,0 -280.1,62.1 -353.6,186.5 l -136.3,-90.8 c 93,-172 255.8,-258 488.3,-258 84.4,0 160.3,11.1 227.9,33.3 67.6,22.2 124.9,60.3 172,114.3 47.1,54.1 70.5,121.7 70.5,202.9 0,60.5 -12.1,112.7 -36.4,156.5 -24.4,43.8 -59.7,78.4 -106.3,103.8 -46.5,25.4 -93.5,44.6 -141.1,57.6 -47.6,13 -104.9,24.4 -172,34.1 -89.7,13 -158.2,30.8 -205.2,53.5 -47.1,22.8 -70.6,59 -70.6,108.7 0,53 24.4,94.9 73,125.7 48.7,30.9 112,46.3 189.8,46.3 59.5,-1.1 114.4,-12.7 164.7,-34.9 50.3,-22.2 88.9,-52.8 116,-91.7 z m 1094.9,159 V 6772.6 h 780.3 v 168.7 h -598.6 v 966.9 z m 2279.2,21.1 c -170.8,0 -310.9,-56 -420.1,-167.9 -109.3,-112 -163.9,-254.4 -163.9,-427.5 0,-76.8 12.2,-149.5 36.5,-218.2 24.4,-68.7 59.5,-130.6 105.4,-185.7 46,-55.2 106.9,-99.3 182.6,-132.3 75.7,-33 161.1,-49.5 256.3,-49.5 95.2,0 180.6,16 256.3,47.9 75.8,31.9 136.6,75.5 182.5,130.6 46,55.2 81.2,117.6 105.4,187.4 24.4,69.7 36.6,143.5 36.6,221.4 0,164.4 -50.3,304.2 -150.9,419.4 -100.6,115.2 -242.8,173.3 -426.7,174.4 z m -403.9,-597 c 0,127.6 35.4,231.4 106.3,311.5 70.8,80 170,120 297.6,120 87.6,-1.1 162.6,-23.5 224.7,-67.3 62.2,-43.9 106.5,-97.1 133.1,-159.8 26.4,-62.7 39.7,-130.9 39.7,-204.4 0,-119 -33.5,-218.2 -100.6,-297.7 -67,-79.5 -167.1,-119.2 -300.1,-119.2 -67.1,0 -126.8,12.1 -179.3,36.5 -52.4,24.2 -94.3,56.7 -125.7,97.3 -31.3,40.5 -54.9,84.8 -70.6,133 -15.7,48.1 -24.1,98.2 -25.1,150.1 z m 2984.9,431.5 c -115.8,114.7 -255.8,172 -420.2,172 -186,0 -332.1,-58.2 -438,-174.4 -106,-116.3 -159,-260.4 -159,-432.4 0,-77.8 11.9,-150.6 35.6,-218.2 23.9,-67.6 59,-128.7 105.5,-183.3 46.5,-54.6 109,-97.9 187.4,-129.8 78.4,-31.9 167.9,-47.8 268.5,-47.8 177.4,0 326,65.9 446.1,197.9 v 465.6 h -485.1 v -162.2 h 316.4 v -230.5 c -80,-67 -172.5,-100.5 -277.4,-100.5 -138.5,0 -242.8,39.5 -313.1,118.4 -70.3,79 -105.5,175.8 -105.5,290.4 -1.1,124.4 36.3,228.8 112,313.1 75.7,84.4 177.9,126.6 306.6,126.6 54.1,0 108.9,-10.6 164.7,-31.7 55.6,-21.1 103,-51.1 141.9,-90 z m 1971,-991.2 h 193 l -509.4,1135.6 H 26883 l -509.5,-1135.6 h 193.1 l 107.1,238.5 h 614.8 z m -175.3,403.9 h -480.2 l 240.1,540.3 z m 1505.4,731.7 h -139.5 V 6772.6 h 183.3 V 7574 l 644.1,-801.4 h 137.8 v 1135.6 h -181.6 V 7100.3 Z M 9471.29,8546.5 c -290.11,0 -556.09,67.5 -797.84,202.2 -241.85,134.8 -433.8,323.1 -575.95,564.9 -142.12,241.8 -213.17,513.7 -213.17,815.5 0,301.9 71.05,573 213.17,813.3 142.15,240.3 334.1,427.9 575.95,562.7 241.75,134.8 507.73,202.2 797.84,202.2 290.19,0 556.11,-67.4 797.91,-202.2 241.8,-134.8 432.2,-322.4 571.5,-562.7 139.2,-240.3 208.8,-511.4 208.8,-813.3 0,-301.8 -70.3,-573.7 -211,-815.5 -140.7,-241.8 -331.2,-430.1 -571.5,-564.9 -240.3,-134.7 -505.52,-202.2 -795.71,-202.2 z m 0,685.8 c 246.21,0 443.3,82.1 591.31,246.2 148,164.2 222,381 222,650.6 0,272.6 -74,490.2 -222,652.8 -148.01,162.7 -345.1,244.1 -591.31,244.1 -249.11,0 -447.68,-80.7 -595.69,-241.8 -147.97,-161.3 -221.95,-379.6 -221.95,-655.1 0,-272.5 73.98,-490.1 221.95,-652.8 148.01,-162.7 346.58,-244 595.69,-244 z m 3569.61,-655 -641.8,1165 h -180.3 v -1165 h -751.7 v 3086 h 1261.7 c 243.3,0 450.6,-42.4 622,-127.4 171.5,-85 299.8,-201.5 384.8,-349.5 84.9,-148.1 127.4,-312.9 127.4,-494.6 0,-205.1 -57.9,-388.3 -173.6,-549.5 -115.8,-161.2 -286.5,-275.5 -512.2,-342.9 l 712.2,-1222.1 z m -822.1,1696.9 h 466 c 137.8,0 241.1,33.7 310,101.1 68.8,67.4 103.3,162.6 103.3,285.7 0,117.3 -34.5,209.6 -103.3,277 -68.9,67.4 -172.2,101.1 -310,101.1 h -466 z m 2866.3,786.9 v -624.3 h 1006.7 v -580.2 h -1006.7 v -677.1 h 1138.6 v -602.2 h -1890.3 v 3086 h 1890.3 v -602.2 z m 5121.5,602.2 v -3086 h -751.7 v 1850.8 L 18764.7,8577.3 H 18158 l -694.6,1855.1 V 8577.3 h -751.7 v 3086 h 888 l 866,-2136.4 857.3,2136.4 z m 1292.4,0 v -3086 h -751.7 v 3086 z m 2897.1,-993.5 c 0,-178.7 -41,-342.1 -123.1,-490.1 -82,-148 -208,-267.4 -378.1,-358.3 -170,-90.9 -381,-136.3 -633,-136.3 h -466 V 8577.3 h -751.7 v 3086 h 1217.7 c 246.2,0 454.2,-42.4 624.3,-127.4 170,-85 297.4,-202.2 382.4,-351.7 85,-149.5 127.5,-320.9 127.5,-514.4 z M 23204.7,10283 c 143.7,0 250.6,33.7 321,101.1 70.3,67.4 105.5,162.7 105.5,285.7 0,123.1 -35.2,218.4 -105.5,285.8 -70.4,67.4 -177.3,101.1 -321,101.1 h -408.8 V 10283 Z M 25904,8546.5 c -225.7,0 -427.9,36.7 -606.7,109.9 -178.8,73.3 -321.7,181.7 -428.6,325.3 -107,143.6 -163.4,316.5 -169.3,518.7 h 800.1 c 11.7,-114.2 51.3,-201.4 118.7,-261.5 67.4,-60.1 155.3,-90.1 263.8,-90.1 111.3,0 199.3,25.7 263.7,76.9 64.5,51.3 96.7,122.4 96.7,213.2 0,76.2 -25.6,139.3 -76.9,189.1 -51.2,49.8 -114.3,90.8 -189,123 -74.7,32.3 -181,69 -318.8,110 -199.2,61.5 -361.9,123 -487.9,184.6 -126,61.5 -234.4,152.4 -325.3,272.5 -90.9,120.2 -136.3,277 -136.3,470.5 0,287.2 104.1,512.1 312.2,674.7 208,162.7 479.1,244 813.2,244 340,0 614,-81.3 822.1,-244 208,-162.6 319.4,-389 334.1,-679.1 h -813.3 c -5.9,99.6 -42.4,178 -109.9,235.1 -67.4,57.2 -153.8,85.8 -259.4,85.8 -90.8,0 -164.1,-24.2 -219.8,-72.6 -55.7,-48.4 -83.5,-117.9 -83.5,-208.8 0,-99.6 46.9,-177.3 140.7,-233 93.8,-55.7 240.3,-115.7 439.6,-180.2 199.3,-67.5 361.2,-131.9 485.8,-193.5 124.6,-61.5 232.2,-150.9 323.1,-268.1 90.9,-117.3 136.3,-268.2 136.3,-452.8 0,-175.8 -44.7,-335.6 -134.1,-479.2 -89.4,-143.6 -219.1,-257.9 -389.1,-342.9 -170,-85 -370.7,-127.5 -602.2,-127.5 z m 2325.5,3116.8 V 9817 c 0,-184.6 45.4,-326.8 136.3,-426.4 90.8,-99.7 224.2,-149.5 400,-149.5 175.8,0 310.7,49.8 404.4,149.5 93.8,99.6 140.7,241.8 140.7,426.4 v 1846.3 h 751.8 V 9821.4 c 0,-275.5 -58.6,-508.5 -175.9,-699 -117.2,-190.5 -274.7,-334.1 -472.6,-430.8 -197.8,-96.7 -418.3,-145.1 -661.5,-145.1 -243.3,0 -460.9,47.7 -652.9,142.9 -191.9,95.2 -343.6,238.8 -455,430.8 -111.3,192 -167.1,425.7 -167.1,701.2 v 1841.9 z m 5855.6,0 v -3086 h -751.7 v 1850.8 l -690.2,-1850.8 h -606.7 l -694.6,1855.1 V 8577.3 h -751.7 v 3086 h 888 l 866,-2136.4 857.3,2136.4 h 883.6"
         style="fill:#000000;fill-opacity:1;fill-rule:evenodd;stroke:none"
         id="path120" />
      <path
         d="m 19885.5,22094.5 c 2390.3,0 4328.1,-566.7 4328.1,-1265.6 0,-699 -1937.8,-1265.6 -4328.1,-1265.6 -2390.4,0 -4328.2,566.6 -4328.2,1265.6 0,698.9 1937.8,1265.6 4328.2,1265.6"
         style="fill:#000000;fill-opacity:1;fill-rule:evenodd;stroke:none"
         id="path122" />
    </g>
  </g>
</svg>
